# This file uses centimeters as units for non-parametric coordinates.

mtllib symbol.mtl
g default
v -2.274877 0.027717 0.000000
v 2.274877 0.027717 0.000000
v -2.274877 2.374009 0.000000
v 2.274877 2.374009 0.000000
v -2.274877 0.027717 0.000000
v 2.274877 0.027717 0.000000
v -2.274877 2.374009 0.000000
v 2.274877 2.374009 0.000000
vt 0.000000 0.178421
vt 1.000000 0.178421
vt 0.000000 0.821579
vt 1.000000 0.821579
vt 0.000000 0.178421
vt 1.000000 0.178421
vt 0.000000 0.821579
vt 1.000000 0.821579
vn 0.000000 0.000000 1.000000
vn 0.000000 0.000000 1.000000
vn 0.000000 0.000000 1.000000
vn 0.000000 0.000000 1.000000
vn 0.000000 0.000000 1.000000
vn 0.000000 0.000000 1.000000
vn 0.000000 0.000000 1.000000
vn 0.000000 0.000000 1.000000
vn 0.000000 0.000000 1.000000
vn 0.000000 0.000000 1.000000
vn 0.000000 0.000000 1.000000
vn 0.000000 0.000000 1.000000
s off
g symbol:pPlane1
usemtl symbol:lambert2SG
f 1/1/1 2/2/2 3/3/3
f 3/3/4 2/2/5 4/4/6
f 5/5/7 6/6/8 7/7/9
f 7/7/10 6/6/11 8/8/12
