# This file uses centimeters as units for non-parametric coordinates.

mtllib symbol3.mtl
g default
v 2.274877 -1.673004 -0.000000
v -2.274877 -1.673004 0.000000
v 2.274877 2.112513 -0.000000
v -2.274877 2.112513 0.000000
v -2.274877 -1.673004 0.000000
v 2.274877 -1.673004 0.000000
v -2.274877 2.112513 0.000000
v 2.274877 2.112513 0.000000
vt 0.051387 0.003475
vt 0.948613 0.003475
vt 0.051387 0.996525
vt 0.948613 0.996525
vt 0.051387 0.003475
vt 0.948613 0.003475
vt 0.051387 0.996525
vt 0.948613 0.996525
vn -0.000000 0.000000 -1.000000
vn -0.000000 0.000000 -1.000000
vn -0.000000 0.000000 -1.000000
vn -0.000000 0.000000 -1.000000
vn 0.000000 0.000000 1.000000
vn 0.000000 0.000000 1.000000
vn 0.000000 0.000000 1.000000
vn 0.000000 0.000000 1.000000
s 1
g pPlane3
usemtl lambert2SG
f 1/1/1 2/2/2 3/3/3
f 3/3/3 2/2/2 4/4/4
s 2
f 5/5/5 6/6/6 7/7/7
f 7/7/7 6/6/6 8/8/8
